HIERARCHY
ROOT RootJoint
{
    OFFSET   0.000000   0.000000   0.000000
    CHANNELS 6 Xposition Yposition Zposition Xrotation Yrotation Zrotation
    JOINT pelvis_lowerback
    {
        OFFSET   0.000000   0.093605   0.000000
        CHANNELS 3 Xrotation Yrotation Zrotation
        JOINT lowerback_torso
        {
            OFFSET   0.000000   0.100000   0.000000
            CHANNELS 3 Xrotation Yrotation Zrotation
            JOINT torso_head
            {
                OFFSET   0.000000   0.282350   0.000000
                CHANNELS 3 Xrotation Yrotation Zrotation
                End Site
                {
                    OFFSET   0.000000   0.192650   0.000000
                }
            }
            JOINT rTorso_Clavicle
            {
                OFFSET  -0.001000   0.157500   0.000000
                CHANNELS 3 Xrotation Yrotation Zrotation
                JOINT rShoulder
                {
                    OFFSET  -0.117647   0.000000   0.000000
                    CHANNELS 3 Xrotation Yrotation Zrotation
                    JOINT rElbow
                    {
                        OFFSET  -0.245000   0.000000   0.000000
                        CHANNELS 3 Xrotation Yrotation Zrotation
                        JOINT rWrist
                        {
                            OFFSET  -0.240000   0.000000   0.000000
                            CHANNELS 3 Xrotation Yrotation Zrotation
                            End Site
                            {
                                OFFSET  -0.116353  -0.002500   0.000000
                            }
                        }
                    }
                }
            }
            JOINT lTorso_Clavicle
            {
                OFFSET   0.001000   0.157500   0.000000
                CHANNELS 3 Xrotation Yrotation Zrotation
                JOINT lShoulder
                {
                    OFFSET   0.117647   0.000000   0.000000
                    CHANNELS 3 Xrotation Yrotation Zrotation
                    JOINT lElbow
                    {
                        OFFSET   0.245000   0.000000   0.000000
                        CHANNELS 3 Xrotation Yrotation Zrotation
                        JOINT lWrist
                        {
                            OFFSET   0.240000   0.000000   0.000000
                            CHANNELS 3 Xrotation Yrotation Zrotation
                            End Site
                            {
                                OFFSET   0.116353  -0.002500   0.000000
                            }
                        }
                    }
                }
            }
        }
    }
    JOINT rHip
    {
        OFFSET  -0.100000  -0.051395   0.000000
        CHANNELS 3 Xrotation Yrotation Zrotation
        JOINT rKnee
        {
            OFFSET   0.000000  -0.410000   0.000000
            CHANNELS 3 Xrotation Yrotation Zrotation
            JOINT rAnkle
            {
                OFFSET   0.000000  -0.390000   0.000000
                CHANNELS 3 Xrotation Yrotation Zrotation
                JOINT rToeJoint
                {
                    OFFSET   0.000000  -0.050000   0.130000
                    CHANNELS 3 Xrotation Yrotation Zrotation
                    End Site
                    {
                        OFFSET  -0.010000   0.002000   0.060000
                    }
                }
            }
        }
    }
    JOINT lHip
    {
        OFFSET   0.100000  -0.051395   0.000000
        CHANNELS 3 Xrotation Yrotation Zrotation
        JOINT lKnee
        {
            OFFSET   0.000000  -0.410000   0.000000
            CHANNELS 3 Xrotation Yrotation Zrotation
            JOINT lAnkle
            {
                OFFSET   0.000000  -0.390000   0.000000
                CHANNELS 3 Xrotation Yrotation Zrotation
                JOINT lToeJoint
                {
                    OFFSET   0.000000  -0.050000   0.130000
                    CHANNELS 3 Xrotation Yrotation Zrotation
                    End Site
                    {
                        OFFSET   0.010000   0.002000   0.060000
                    }
                }
            }
        }
    }
}
MOTION
Frames: 17
Frame Time:   0.008333
 -2.376719   0.925631   3.975860   0.000000   0.000000   0.000000   0.000000   0.000000   0.000000   0.000000   0.000000   0.000000   0.000000   0.000000   0.000000   0.000000   0.000000   0.000000   0.000000   0.000000   0.000000   0.000000   0.000000   0.000000   0.000000   0.000000   0.000000   0.000000   0.000000   0.000000   0.000000   0.000000   0.000000   0.000000   0.000000   0.000000   0.000000   0.000000   0.000000   0.000000   0.000000   0.000000   0.000000   0.000000   0.000000   0.000000   0.000000   0.000000   0.000000   0.000000   0.000000   0.000000   0.000000   0.000000   0.000000   0.000000   0.000000   0.000000   0.000000   0.000000   0.000000   0.000000   0.000000
 -2.376648   0.925638   3.975467  -0.123829  -0.474287   0.153540   0.317982  -0.036990  -0.120964  -0.092765  -0.137129  -0.190677  -0.151287  -0.528413   0.526246  -0.028658  -0.276791  -0.527165   0.334083   0.417013   2.614801   0.060892   3.578435  -0.014477  -0.268326  -1.517096  -2.239157   0.210772   0.711691   0.433525  -0.463562   0.852902  -2.221915   0.051455  -3.038563  -0.003116  -0.166160   0.882858   2.836376  -0.189552   0.758115  -0.252353   0.341195   0.000304   0.000842  -0.322920   0.740499   0.189867   0.680311  -0.000484   0.006084  -0.381579   0.159230  -0.095710   2.086141  -0.001125  -0.005730  -0.779407   0.758748   0.004317  -0.295456   0.000167  -0.001141
 -2.376671   0.925708   3.975111  -0.320034  -1.265078   0.325160   0.617573  -0.018936  -0.271232  -0.143984  -0.175910  -0.415393  -0.261529  -1.062530   1.047631  -0.059390  -0.380769  -0.552410   0.623831   1.042088   5.623964   0.141966   7.309471  -0.024186  -0.507791  -1.924162  -3.899755   0.414639   1.428435   0.297153  -0.875155   1.662507  -4.729083   0.112728  -5.946262  -0.005716  -0.326400   1.049494   5.109344  -0.412713   1.509246  -0.563217   0.658730   0.000659   0.000550  -0.627126   1.444879   0.375923   1.302164  -0.000419   0.008477  -0.591085   0.318723  -0.131158   4.345798  -0.004380  -0.016852  -1.488272   1.475616   0.019946  -0.540079   0.000526  -0.001093
 -2.376711   0.925630   3.974642  -0.550229  -2.284863   0.476805   0.914198   0.061778  -0.413179  -0.186194  -0.134376  -0.656737  -0.363572  -1.566473   1.535702  -0.091999  -0.362946  -0.244603   0.861787   1.772667   8.877206   0.227388  11.079557  -0.029631  -0.724390  -1.936321  -4.977834   0.615069   2.073709  -0.230624  -1.228434   2.416948  -7.359511   0.169717  -8.670902  -0.006777  -0.481007   1.037534   6.712775  -0.692889   2.209345  -0.890085   0.933899   0.000987  -0.000353  -0.913839   2.100520   0.554081   1.869285  -0.000040   0.008434  -0.754094   0.360475  -0.242078   6.314110  -0.006171  -0.030034  -2.286926   2.016311  -0.025834  -2.604074   0.001262   0.007016
 -2.376901   0.925199   3.974124  -0.827335  -3.353751   0.588712   1.215308   0.137812  -0.559471  -0.212226  -0.078799  -0.898543  -0.458024  -2.039562   1.992989  -0.121554  -0.284316   0.281887   1.048833   2.560942  12.305735   0.308636  14.865076  -0.031535  -0.928961  -1.808309  -5.605335   0.813100   2.635220  -0.994382  -1.524611   3.110084 -10.011406   0.216721 -11.221783  -0.006293  -0.632584   0.965465   7.807646  -0.974801   2.853905  -1.198332   1.166930   0.001226  -0.001178  -1.185112   2.709224   0.723237   2.381979   0.000434   0.007547  -0.918207   0.440925  -0.329669   8.151679  -0.008129  -0.039540  -3.029722   2.574142  -0.035556  -4.379719   0.002019   0.012359
 -2.377414   0.924981   3.973800  -1.121229  -4.395007   0.589060   1.467561   0.193798  -0.669690  -0.240394  -0.033559  -1.108187  -0.542406  -2.483262   2.420500  -0.139647  -0.181779   1.012114   1.186481   3.367420  15.831849   0.378244  18.549374  -0.028946  -1.123814  -1.602130  -5.875298   1.007565   3.123690  -1.938823  -1.767307   3.747489 -12.641683   0.253244 -13.608745  -0.005399  -0.778426   0.859395   8.551671  -1.110261   3.377375  -1.175439   1.745167   0.000901  -0.003597  -1.205004   3.210182   0.985705   2.804498  -0.000601   0.005987  -1.114225   0.552012  -0.304640   9.832959  -0.010038  -0.044825  -3.701832   3.131440  -0.030577  -5.282600   0.002273   0.012887
 -2.377914   0.924817   3.973563  -1.399297  -5.474153   0.569796   1.678249   0.267588  -0.781076  -0.285594   0.027370  -1.304751  -0.626990  -2.898312   2.812480  -0.142464  -0.049420   1.893165   1.274400   4.157695  19.273999   0.426317  21.999656  -0.023187  -1.313401  -1.330632  -5.793040   1.198630   3.554840  -2.986102  -1.959811   4.339068 -15.216263   0.278357 -15.838843  -0.003747  -0.923330   0.746891   9.007459  -1.191939   3.903643  -1.133826   2.199122   0.000612  -0.005090  -1.280337   3.718583   1.169785   3.249005  -0.001194   0.004641  -1.315646   0.653224  -0.264392  11.480662  -0.012064  -0.049346  -4.296601   3.648133  -0.003868  -6.101099   0.002638   0.013689
 -2.378508   0.924416   3.972753  -1.660571  -6.557616   0.347191   2.027851   0.332393  -0.715809  -0.414895   0.136466  -1.454106  -0.722825  -3.267768   3.088526  -0.115498   0.020192   2.415510   1.780520   5.129008  22.490212   0.466532  25.756778  -0.037841  -1.528499  -1.330293  -5.130540   1.348335   4.053500  -3.569403  -3.001143   4.902501 -17.759915   0.290146 -18.270633  -0.020876  -1.221861   0.884579   8.771650  -1.723232   4.362296  -0.830758   3.486541  -0.000234  -0.011149  -2.171773   4.373269   1.302060   3.639773  -0.001378   0.003858  -1.541642   0.679404  -0.009363  12.883849  -0.013820  -0.051703  -5.018924   4.216149   0.235426  -6.399158   0.002979   0.012301
 -2.379056   0.923818   3.971840  -1.953331  -7.523075   0.094327   2.395698   0.354147  -0.656720  -0.505336   0.211754  -1.574052  -0.802553  -3.611964   3.339017  -0.096571   0.128002   2.804668   2.195017   6.102480  25.430457   0.482188  29.355287  -0.047928  -1.701410  -1.167948  -4.436592   1.471945   4.452239  -3.964109  -3.974140   5.414028 -20.028929   0.286040 -20.572346  -0.032055  -1.513103   0.880347   8.610381  -2.254954   4.774227  -0.497568   4.829044  -0.001117  -0.015366  -3.005260   4.980431   1.439736   3.953883  -0.001461   0.003286  -1.749763   0.693137   0.256881  14.160299  -0.014761  -0.051237  -5.698387   4.746789   0.468462  -6.662089   0.003114   0.010870
 -2.379496   0.923091   3.970934  -2.255005  -8.400812  -0.168234   2.754271   0.354643  -0.603954  -0.578298   0.261186  -1.675818  -0.871930  -3.933180   3.569620  -0.092041   0.261119   3.100077   2.524217   7.054539  28.126886   0.478603  32.729845  -0.053176  -1.853782  -0.910381  -3.836679   1.576419   4.772343  -4.227039  -4.879327   5.887487 -22.064761   0.272232 -22.737368  -0.038938  -1.773152   0.778260   8.595202  -2.756974   5.150558  -0.162718   6.133888  -0.001855  -0.017876  -3.779685   5.543879   1.578579   4.244545  -0.001493   0.002850  -1.954040   0.707247   0.509756  15.338055  -0.015009  -0.049180  -6.335160   5.241268   0.693120  -6.890154   0.003075   0.009481
 -2.379799   0.922287   3.970102  -2.551258  -9.226398  -0.427469   3.089102   0.347163  -0.558980  -0.647198   0.296483  -1.764789  -0.934454  -4.232718   3.782837  -0.098998   0.405598   3.323701   2.781698   7.970500  30.607631   0.461781  35.888337  -0.054429  -1.994077  -0.611004  -3.333506   1.665105   5.039139  -4.393247  -5.720830   6.333953 -23.902497   0.252977 -24.768806  -0.042807  -2.008631   0.613972   8.700435  -3.229882   5.496337   0.157067   7.377785  -0.002385  -0.019325  -4.507181   6.067861   1.715972   4.513073  -0.001471   0.002452  -2.138879   0.722431   0.738211  16.456480  -0.014852  -0.046614  -6.940640   5.701212   0.907947  -7.156075   0.003082   0.008454
 -2.379955   0.921430   3.969362  -2.834743 -10.010629  -0.679970   3.396426   0.332730  -0.518934  -0.718035   0.320666  -1.842964  -0.992314  -4.512212   3.980706  -0.114497   0.551434   3.489411   2.979570   8.841965  32.894699   0.436187  38.841776  -0.052663  -2.126024  -0.293445  -2.914098   1.740807   5.268032  -4.486669  -6.502597   6.759110 -25.568932   0.231111 -26.671911  -0.044455  -2.224897   0.412027   8.896088  -3.677117   5.813386   0.457364   8.554296  -0.002713  -0.020042  -5.192826   6.555161   1.850724   4.759967  -0.001406   0.002075  -2.303161   0.741144   0.945224  17.506312  -0.014402  -0.043722  -7.513162   6.133127   1.114699  -7.451660   0.003107   0.007686
 -2.379938   0.920572   3.968713  -3.103410 -10.753783  -0.910363   3.678133   0.309224  -0.490581  -0.791671   0.333084  -1.916829  -1.046537  -4.773181   4.164504  -0.135731   0.691972   3.609530   3.128398   9.664257  35.007004   0.405252  41.601362  -0.048811  -2.251440   0.028205  -2.567823   1.805262   5.467444  -4.526352  -7.228880   7.165003 -27.085632   0.208542 -28.452945  -0.044439  -2.425257   0.187967   9.159238  -4.094563   6.104988   0.719826   9.656980  -0.002839  -0.020168  -5.846085   7.008574   1.981987   4.987279  -0.001304   0.001729  -2.454720   0.768812   1.096823  18.489142  -0.013549  -0.040657  -8.092488   6.533846   1.294525  -7.463103   0.002504   0.006182
 -2.379653   0.920304   3.968241  -3.262278 -11.308966  -0.998191   3.838850   0.244749  -0.575838  -0.864243   0.364146  -2.006708  -1.012310  -4.796306   4.239914  -0.030717   0.808823   3.468566   3.533893  10.455366  36.852809   0.380075  44.451079  -0.059744  -2.391464   0.254193  -1.975237   1.724106   5.522815  -4.386065  -8.290532   7.568523 -28.203423   0.179478 -30.301351  -0.053182  -2.791529   0.346619   8.869178  -4.156398   6.548087   0.829107   9.876456  -0.002363  -0.016328  -5.920109   7.734712   2.038014   4.947787  -0.001046   0.001168  -2.542220   0.475946   1.103273  19.132331  -0.012379  -0.037000  -8.698561   6.657982   1.629440  -7.226301   0.001418   0.003373
 -2.379024   0.920396   3.967626  -3.302094 -11.843919  -0.996682   3.963074   0.180866  -0.699624  -0.976322   0.373290  -2.113357  -0.982008  -4.802841   4.294006   0.044071   0.926551   3.197456   3.878725  11.209792  38.491032   0.349876  47.127790  -0.067127  -2.511251   0.556426  -1.409868   1.602902   5.510510  -4.067958  -9.331341   7.900600 -29.110745   0.149864 -32.060133  -0.058180  -3.136942   0.380833   8.757439  -4.212851   7.006492   0.836019   9.864489  -0.001891  -0.013054  -6.065146   8.431504   2.075327   4.938033  -0.000843   0.000882  -2.660441   0.193892   1.058194  19.688052  -0.011272  -0.033311  -9.269838   6.765978   1.942514  -7.022579   0.000625   0.001379
 -2.378048   0.920704   3.966899  -3.257691 -12.403178  -0.932911   4.073070   0.111935  -0.837160  -1.107275   0.366301  -2.220834  -0.955295  -4.806656   4.337336   0.076993   1.050919   2.838148   4.157705  11.926744  39.948355   0.317336  49.636585  -0.070420  -2.620498   0.905604  -0.980734   1.465302   5.462578  -3.631888 -10.333801   8.188232 -29.856650   0.122152 -33.720257  -0.059448  -3.448037   0.303229   8.824881  -4.292317   7.452308   0.762354   9.728983  -0.001538  -0.010300  -6.255487   9.087453   2.106639   4.923201  -0.000690   0.000636  -2.773764  -0.064366   0.990011  20.198242  -0.010361  -0.030039  -9.805160   6.863871   2.235379  -6.842302   0.000027  -0.000079
 -2.376737   0.921142   3.966099  -3.146513 -13.002972  -0.824569   4.173760   0.037604  -0.972475  -1.246067   0.347854  -2.319991  -0.929851  -4.809562   4.374203   0.076694   1.175292   2.421492   4.382051  12.601925  41.252357   0.284603  51.985444  -0.070189  -2.721703   1.283436  -0.684359   1.320644   5.396312  -3.120529 -11.292455   8.444385 -30.475469   0.097565 -35.281852  -0.057771  -3.730524   0.150741   9.030069  -4.402755   7.881073   0.626548   9.514114  -0.001320  -0.007894  -6.469704   9.703016   2.134171   4.905724  -0.000577   0.000442  -2.863285  -0.302133   0.916926  20.676869  -0.009664  -0.027266 -10.305875   6.952894   2.509375  -6.680395  -0.000428  -0.001167
